Coordinates
version=1
nRows=11
nColumns=40
inDegrees=yes

Units are S.I. units (second, meters, Newtons, ...)
Angles are in degrees.

endheader
time	pelvis_tilt	pelvis_list	pelvis_rotation	pelvis_tx	pelvis_ty	pelvis_tz	hip_flexion_r	hip_adduction_r	hip_rotation_r	knee_angle_r	knee_angle_r_beta	ankle_angle_r	subtalar_angle_r	mtp_angle_r	hip_flexion_l	hip_adduction_l	hip_rotation_l	knee_angle_l	knee_angle_l_beta	ankle_angle_l	subtalar_angle_l	mtp_angle_l	lumbar_extension	lumbar_bending	lumbar_rotation	arm_flex_r	arm_add_r	arm_rot_r	elbow_flex_r	pro_sup_r	wrist_flex_r	wrist_dev_r	arm_flex_l	arm_add_l	arm_rot_l	elbow_flex_l	pro_sup_l	wrist_flex_l	wrist_dev_l
     28.47000000	     -3.25788327	     -5.82340993	      5.17938855	      1.10906668	      0.93155402	      0.46852545	     11.68608727	      3.67253372	    -20.30595081	     14.80943845	     14.80943845	      8.82216516	     -1.59522973	     -6.16500611	     28.28987831	    -12.56123623	      0.23534850	     65.07699530	     65.07699530	      8.47612253	    -18.05287467	      9.34524377	     -8.61674197	      7.43053133	      4.25208927	      9.52451308	    -15.71506200	    -14.25248367	     34.04270062	     45.78648866	      0.00000000	      0.00000000	      4.15435159	     -8.45708615	     -2.71175321	     51.13731823	     46.20233736	      0.00000000	      0.00000000
     28.48157143	     -3.23536684	     -5.77871907	      5.51205959	      1.10755270	      0.93199776	      0.46893445	     10.56927731	      3.90998806	    -20.46979940	     13.76025428	     13.76025428	      8.80203481	     -1.45700815	     -6.60616046	     29.95957194	    -12.33022925	      0.50847611	     63.43079066	     63.43079066	      8.71097077	    -17.95763121	      9.56325089	     -8.71680385	      7.18989735	      4.36546206	     12.06032592	    -16.05752341	    -13.81916429	     35.40413954	     45.74195392	      0.00000000	      0.00000000	      3.58533169	     -8.00581406	     -2.33297630	     46.76506542	     46.15311192	      0.00000000	      0.00000000
     28.49314286	     -3.18668394	     -5.72706454	      5.77267039	      1.10602886	      0.93229079	      0.46938966	      9.65663210	      4.08442989	    -20.39083127	     13.17401745	     13.17401745	      9.05193383	     -1.52820019	     -6.61810176	     31.35569579	    -12.03565226	      0.75397845	     61.42653904	     61.42653904	      8.64151682	    -18.08671446	      9.82776914	     -8.92728207	      6.99262668	      4.06035020	     14.72765442	    -16.04788130	    -13.74143266	     37.27943851	     45.68517975	      0.00000000	      0.00000000	      2.01777448	     -7.95298071	     -2.02598349	     44.61586137	     46.09643015	      0.00000000	      0.00000000
     28.50471429	     -3.19783523	     -5.70542774	      6.02277086	      1.10452244	      0.93238791	      0.46976975	      8.78154714	      4.30271510	    -20.33176584	     12.48580535	     12.48580535	      9.11879639	     -1.69771296	     -6.99361078	     32.63770828	    -11.77235632	      0.90259732	     59.15722824	     59.15722824	      8.61575639	    -18.08564194	     10.22600018	     -9.03116442	      6.86010132	      4.50346139	     16.59740699	    -16.66097435	    -12.85903713	     39.79755486	     45.56746415	      0.00000000	      0.00000000	      1.99134858	     -7.37691908	     -1.75817149	     39.36622563	     46.06292509	      0.00000000	      0.00000000
     28.51628571	     -3.13582766	     -5.65430231	      6.27425303	      1.10312637	      0.93247577	      0.47003062	      7.83550518	      4.47210159	    -20.32343191	     11.84857260	     11.84857260	      9.35424135	     -1.65686555	     -7.00598863	     33.62997692	    -11.42384198	      1.03169470	     56.57655854	     56.57655854	      8.51855252	    -18.21649495	     10.75515940	     -9.28553281	      6.68120779	      4.35292362	     19.15696764	    -16.76047352	    -12.78424399	     41.69670881	     45.51115099	      0.00000000	      0.00000000	      0.55370958	     -7.26410830	     -1.54925620	     37.42270782	     46.01526484	      0.00000000	      0.00000000
     28.52785714	     -3.10051582	     -5.71513817	      6.53267451	      1.10178632	      0.93235169	      0.47021850	      6.88522463	      4.77075726	    -20.39394893	     11.10717727	     11.10717727	      9.53145379	     -1.51493401	     -7.10666104	     34.54965981	    -11.19076816	      1.12612869	     53.79398856	     53.79398856	      8.48427289	    -18.15618608	     11.37175240	     -9.44667635	      6.64984967	      4.25026474	     21.53484525	    -16.90340004	    -12.51061958	     43.78764934	     45.43850673	      0.00000000	      0.00000000	     -0.50541173	     -7.07381044	     -1.32938985	     34.67982313	     45.96930232	      0.00000000	      0.00000000
     28.53942857	     -3.12511114	     -5.75404254	      6.75264661	      1.10054250	      0.93208633	      0.47030774	      5.99459765	      5.02630201	    -20.49101483	     10.36687331	     10.36687331	      9.59373798	     -1.31708269	     -7.63315851	     35.34454222	    -10.89379684	      1.16188846	     50.73157109	     50.73157109	      8.44311881	    -18.03842338	     12.06806578	     -9.53581041	      6.56732400	      5.02447116	     22.74571948	    -17.83002013	    -11.54879679	     47.17971026	     45.30442299	      0.00000000	      0.00000000	     -0.26146360	     -6.53674096	     -1.38077554	     29.83715546	     45.98426931	      0.00000000	      0.00000000
     28.55100000	     -3.12617321	     -5.79050041	      6.97275741	      1.09939308	      0.93173749	      0.47023093	      5.06268348	      5.27700197	    -20.58326190	      9.62125208	      9.62125208	      9.82386067	     -1.01528776	     -7.65510419	     35.93429346	    -10.54436934	      1.18773470	     47.39375644	     47.39375644	      8.33465882	    -17.85180312	     12.52376985	     -9.66848617	      6.49186994	      4.94569832	     25.13379297	    -17.87210798	    -11.56667433	     49.00288311	     45.25701800	      0.00000000	      0.00000000	     -1.67964268	     -6.49418200	     -1.30728564	     28.47732320	     45.95053615	      0.00000000	      0.00000000
     28.56257143	     -3.18873729	     -5.90493450	      7.18031899	      1.09829848	      0.93114121	      0.47000943	      4.16968688	      5.59554966	    -20.78506524	      8.81695139	      8.81695139	     10.01966773	     -0.50779851	     -7.74835914	     36.48292314	    -10.22598798	      1.23977965	     43.90044662	     43.90044662	      8.25134821	    -17.45092316	     12.78305532	     -9.71639049	      6.53637556	      4.90492176	     27.40355722	    -17.97351774	    -11.46746869	     51.06021448	     45.19607909	      0.00000000	      0.00000000	     -2.98792270	     -6.40528044	     -1.22170078	     26.92648714	     45.91857133	      0.00000000	      0.00000000
     28.57414286	     -3.27386781	     -5.99009581	      7.36019597	      1.09736279	      0.93044331	      0.46964911	      3.24937969	      5.87539984	    -21.02550831	      7.94687014	      7.94687014	     10.22029500	      0.17866114	     -7.87898859	     36.85687056	     -9.87072028	      1.22055200	     40.19091485	     40.19091485	      8.14347487	    -16.76870426	     12.87003946	     -9.73049940	      6.54039026	      4.87353133	     29.54876553	    -18.05547207	    -11.27493717	     53.36181545	     45.12275545	      0.00000000	      0.00000000	     -4.24520605	     -6.33129644	     -1.14287555	     25.38825650	     45.89022026	      0.00000000	      0.00000000
     28.58571429	     -3.36467797	     -6.17293963	      7.55370070	      1.09655019	      0.92952564	      0.46912702	      2.32591539	      6.25130077	    -21.39974137	      7.06031223	      7.06031223	     10.41194517	      1.07651579	     -8.05304239	     37.15616484	     -9.58856551	      1.24164708	     36.44884296	     36.44884296	      8.02308399	    -15.69078290	     12.64437504	     -9.70576941	      6.68391034	      4.87744011	     31.55488465	    -18.23433598	    -10.97115211	     56.09789875	     45.03233940	      0.00000000	      0.00000000	     -5.45142602	     -6.19510640	     -1.07335409	     23.89002063	     45.86644371	      0.00000000	      0.00000000
